{"accessors" : [{"bufferView" : 0, "byteOffset" : 0, "componentType" : 5123, "count" : 14604, "type" : "SCALAR", "max" : [13840], "min" : [0]}, {"bufferView" : 1, "byteOffset" : 0, "componentType" : 5126, "count" : 13841, "type" : "VEC3", "max" : [0.6570240259170532, 0.9327989816665649, 1], "min" : [-0.6570240259170532, -0.9327989816665649, -1], "name" : "POSITION"}, {"bufferView" : 1, "byteOffset" : 12, "componentType" : 5126, "count" : 13841, "type" : "VEC3", "max" : [1.0000044107437134, 1.0000044107437134, 1.0000044107437134], "min" : [-1.0000044107437134, -1.0000044107437134, -1.0000044107437134], "name" : "NORMAL"}, {"bufferView" : 1, "byteOffset" : 24, "componentType" : 5126, "count" : 13841, "type" : "VEC4", "max" : [1.0000044107437134, 1.0000044107437134, 1.0000044107437134, 1], "min" : [-1.0000044107437134, -1.0000044107437134, -1.0000044107437134, 1], "name" : "TANGENT"}, {"bufferView" : 1, "byteOffset" : 40, "componentType" : 5126, "count" : 13841, "type" : "VEC2", "max" : [0.9879840016365051, -0.0029670000076293945], "min" : [0.0029670000076293945, -0.9878699779510498], "name" : "TEXCOORD_0"}], "asset" : {"generator" : "Aspose.3D 22.1", "version" : "2.0"}, "buffers" : [{"uri" : "data:application/octet-stream;base64,", "byteLength" : 730208}], "bufferViews" : [{"buffer" : 0, "byteOffset" : 0, "byteLength" : 29208, "target" : 34963}, {"buffer" : 0, "byteOffset" : 29212, "byteLength" : 700992, "byteStride" : 48, "target" : 34962}], "materials" : [{"name" : "", "pbrMetallicRoughness" : {"baseColorFactor" : [0.5, 0.5, 0.5, 1], "metallicFactor" : 0, "roughnessFactor" : 0}, "emissiveFactor" : [0, 0, 0], "alphaMode" : "OPAQUE", "doubleSided" : false}], "meshes" : [{"primitives" : [{"attributes" : {"POSITION" : 1, "NORMAL" : 2, "TANGENT" : 3, "TEXCOORD_0" : 4}, "indices" : 0, "material" : 0, "mode" : 4}], "name" : ""}], "nodes" : [{"mesh" : 0, "name" : "robot"}], "scene" : 0, "scenes" : [{"nodes" : [0]}]}